<svg width="1200" height="760" viewBox="0 0 1200 760" fill="none" xmlns="http://www.w3.org/2000/svg">
  <defs>
    <linearGradient id="bg" x1="0" y1="0" x2="1200" y2="760" gradientUnits="userSpaceOnUse">
      <stop stop-color="#F8FBFF"/>
      <stop offset="0.58" stop-color="#EEF7FF"/>
      <stop offset="1" stop-color="#F5F3FF"/>
    </linearGradient>
    <linearGradient id="navy" x1="180" y1="92" x2="1040" y2="650" gradientUnits="userSpaceOnUse">
      <stop stop-color="#071426"/>
      <stop offset="0.62" stop-color="#0F2440"/>
      <stop offset="1" stop-color="#172554"/>
    </linearGradient>
    <linearGradient id="accent" x1="330" y1="170" x2="920" y2="590" gradientUnits="userSpaceOnUse">
      <stop stop-color="#2563EB"/>
      <stop offset="0.52" stop-color="#06B6D4"/>
      <stop offset="1" stop-color="#8B5CF6"/>
    </linearGradient>
  </defs>
  <rect width="1200" height="760" fill="url(#bg)"/>
  <circle cx="172" cy="148" r="150" fill="#DBEAFE"/>
  <circle cx="1032" cy="172" r="170" fill="#CFFAFE"/>
  <circle cx="972" cy="622" r="190" fill="#EDE9FE"/>

  <rect x="124" y="88" width="952" height="584" rx="48" fill="#0B1220" opacity="0.16"/>
  <rect x="110" y="70" width="980" height="584" rx="48" fill="url(#navy)"/>
  <rect x="150" y="112" width="900" height="72" rx="28" fill="#111C31"/>
  <circle cx="194" cy="148" r="9" fill="#EF4444"/>
  <circle cx="226" cy="148" r="9" fill="#F59E0B"/>
  <circle cx="258" cy="148" r="9" fill="#22C55E"/>
  <text x="314" y="155" font-family="Inter, Arial, sans-serif" font-size="22" font-weight="900" fill="#E0F2FE">Client Portal Dashboard</text>

  <rect x="154" y="220" width="214" height="364" rx="30" fill="#101C31" stroke="#263B62" stroke-width="2"/>
  <text x="194" y="268" font-family="Inter, Arial, sans-serif" font-size="25" font-weight="900" fill="#FFFFFF">Portal</text>
  <rect x="192" y="304" width="130" height="38" rx="15" fill="#2563EB"/>
  <text x="222" y="329" font-family="Inter, Arial, sans-serif" font-size="15" font-weight="900" fill="#FFFFFF">Requests</text>
  <text x="218" y="390" font-family="Inter, Arial, sans-serif" font-size="16" font-weight="900" fill="#B6C8E6">Files</text>
  <text x="218" y="444" font-family="Inter, Arial, sans-serif" font-size="16" font-weight="900" fill="#B6C8E6">Invoices</text>
  <text x="218" y="498" font-family="Inter, Arial, sans-serif" font-size="16" font-weight="900" fill="#B6C8E6">Support</text>

  <rect x="404" y="220" width="602" height="364" rx="34" fill="#F8FBFF"/>
  <text x="452" y="274" font-family="Inter, Arial, sans-serif" font-size="30" font-weight="900" fill="#0F172A">Client Login Portal</text>
  <text x="452" y="308" font-family="Inter, Arial, sans-serif" font-size="16" font-weight="800" fill="#64748B">Requests, documents, invoices, and support in one secure workspace</text>

  <rect x="452" y="344" width="154" height="96" rx="24" fill="#FFFFFF" stroke="#BFDBFE" stroke-width="2"/>
  <text x="482" y="382" font-family="Inter, Arial, sans-serif" font-size="17" font-weight="900" fill="#1D4ED8">Requests</text>
  <text x="482" y="414" font-family="Inter, Arial, sans-serif" font-size="25" font-weight="900" fill="#0F172A">86</text>
  <rect x="482" y="424" width="84" height="8" rx="4" fill="#60A5FA"/>

  <rect x="634" y="344" width="154" height="96" rx="24" fill="#FFFFFF" stroke="#A5F3FC" stroke-width="2"/>
  <text x="664" y="382" font-family="Inter, Arial, sans-serif" font-size="17" font-weight="900" fill="#0E7490">Files</text>
  <text x="664" y="414" font-family="Inter, Arial, sans-serif" font-size="25" font-weight="900" fill="#0F172A">1.2k</text>
  <rect x="664" y="424" width="92" height="8" rx="4" fill="#22D3EE"/>

  <rect x="816" y="344" width="154" height="96" rx="24" fill="#FFFFFF" stroke="#DDD6FE" stroke-width="2"/>
  <text x="846" y="382" font-family="Inter, Arial, sans-serif" font-size="17" font-weight="900" fill="#6D28D9">Clients</text>
  <text x="846" y="414" font-family="Inter, Arial, sans-serif" font-size="25" font-weight="900" fill="#0F172A">420</text>
  <rect x="846" y="424" width="74" height="8" rx="4" fill="#A78BFA"/>

  <rect x="452" y="474" width="518" height="72" rx="22" fill="#FFFFFF" stroke="#DBEAFE" stroke-width="2"/>
  <circle cx="492" cy="510" r="18" fill="url(#accent)"/>
  <text x="528" y="504" font-family="Inter, Arial, sans-serif" font-size="17" font-weight="900" fill="#0F172A">Document approval</text>
  <text x="528" y="528" font-family="Inter, Arial, sans-serif" font-size="14" font-weight="800" fill="#64748B">Contract uploaded by Growth Team</text>
  <rect x="812" y="492" width="118" height="36" rx="18" fill="#ECFDF5"/>
  <text x="842" y="516" font-family="Inter, Arial, sans-serif" font-size="14" font-weight="900" fill="#047857">Ready</text>
</svg>
