<svg width="1200" height="700" viewBox="0 0 1200 700" fill="none" xmlns="http://www.w3.org/2000/svg">
  <defs>
    <linearGradient id="bg" x1="0" y1="0" x2="1200" y2="700" gradientUnits="userSpaceOnUse"><stop stop-color="#F8FCFF"/><stop offset="0.5" stop-color="#EEF7FF"/><stop offset="1" stop-color="#F5F3FF"/></linearGradient>
    <linearGradient id="accent" x1="180" y1="130" x2="980" y2="590" gradientUnits="userSpaceOnUse"><stop stop-color="#2563EB"/><stop offset="0.5" stop-color="#06B6D4"/><stop offset="1" stop-color="#7C3AED"/></linearGradient>
    <filter id="shadow" x="76" y="46" width="1048" height="620" filterUnits="userSpaceOnUse" color-interpolation-filters="sRGB"><feDropShadow dx="0" dy="24" stdDeviation="34" flood-color="#1E3A8A" flood-opacity="0.15"/></filter>
  </defs>
  <rect width="1200" height="700" fill="url(#bg)"/>
  <rect x="110" y="78" width="980" height="544" rx="38" fill="white" filter="url(#shadow)"/>
  <rect x="110" y="78" width="980" height="76" rx="38" fill="#F8FAFC"/>
  <rect x="110" y="138" width="980" height="1" fill="#E2E8F0"/>
  <text x="164" y="126" font-family="Inter, Arial, sans-serif" font-size="27" font-weight="900" fill="#0F172A">Admin Control Panel</text>
  <rect x="878" y="98" width="150" height="38" rx="19" fill="url(#accent)"/>
  <text x="912" y="123" font-family="Inter, Arial, sans-serif" font-size="15" font-weight="900" fill="white">Live Admin</text>
  <rect x="144" y="184" width="210" height="392" rx="30" fill="#F8FAFC" stroke="#DBEAFE"/>
  <text x="180" y="232" font-family="Inter, Arial, sans-serif" font-size="24" font-weight="900" fill="#0F172A">Menu</text>
  <rect x="178" y="260" width="142" height="40" rx="15" fill="#2563EB"/>
  <text x="202" y="286" font-family="Inter, Arial, sans-serif" font-size="16" font-weight="900" fill="white">Dashboard</text>
  <text x="202" y="338" font-family="Inter, Arial, sans-serif" font-size="16" font-weight="900" fill="#475569">Users</text>
  <text x="202" y="390" font-family="Inter, Arial, sans-serif" font-size="16" font-weight="900" fill="#475569">Orders</text>
  <text x="202" y="442" font-family="Inter, Arial, sans-serif" font-size="16" font-weight="900" fill="#475569">Content</text>
  <text x="202" y="494" font-family="Inter, Arial, sans-serif" font-size="16" font-weight="900" fill="#475569">Settings</text>
  <rect x="386" y="184" width="196" height="100" rx="26" fill="#EFF6FF" stroke="#BFDBFE"/>
  <text x="416" y="222" font-family="Inter, Arial, sans-serif" font-size="17" font-weight="900" fill="#2563EB">Active Users</text>
  <text x="416" y="262" font-family="Inter, Arial, sans-serif" font-size="34" font-weight="900" fill="#0F172A">12,840</text>
  <rect x="606" y="184" width="196" height="100" rx="26" fill="#ECFEFF" stroke="#99F6E4"/>
  <text x="636" y="222" font-family="Inter, Arial, sans-serif" font-size="17" font-weight="900" fill="#0891B2">Pending Orders</text>
  <text x="636" y="262" font-family="Inter, Arial, sans-serif" font-size="34" font-weight="900" fill="#0F172A">48</text>
  <rect x="826" y="184" width="196" height="100" rx="26" fill="#F5F3FF" stroke="#DDD6FE"/>
  <text x="856" y="222" font-family="Inter, Arial, sans-serif" font-size="17" font-weight="900" fill="#7C3AED">Reports</text>
  <text x="856" y="262" font-family="Inter, Arial, sans-serif" font-size="34" font-weight="900" fill="#0F172A">96%</text>
  <rect x="386" y="318" width="636" height="258" rx="30" fill="#F8FAFC" stroke="#E2E8F0"/>
  <text x="424" y="362" font-family="Inter, Arial, sans-serif" font-size="22" font-weight="900" fill="#0F172A">User management</text>
  <rect x="424" y="388" width="560" height="44" rx="14" fill="#EAF2FF"/>
  <text x="450" y="416" font-family="Inter, Arial, sans-serif" font-size="15" font-weight="900" fill="#2563EB">User</text>
  <text x="620" y="416" font-family="Inter, Arial, sans-serif" font-size="15" font-weight="900" fill="#2563EB">Plan</text>
  <text x="778" y="416" font-family="Inter, Arial, sans-serif" font-size="15" font-weight="900" fill="#2563EB">Status</text>
  <rect x="424" y="448" width="560" height="44" rx="14" fill="white" stroke="#E2E8F0"/>
  <text x="450" y="476" font-family="Inter, Arial, sans-serif" font-size="15" font-weight="900" fill="#334155">Maya Singh</text>
  <text x="620" y="476" font-family="Inter, Arial, sans-serif" font-size="15" font-weight="900" fill="#334155">Pro</text>
  <rect x="778" y="458" width="88" height="24" rx="12" fill="#DCFCE7"/>
  <text x="798" y="475" font-family="Inter, Arial, sans-serif" font-size="12" font-weight="900" fill="#15803D">Active</text>
  <rect x="902" y="458" width="46" height="24" rx="12" fill="#DBEAFE"/>
  <circle cx="930" cy="470" r="8" fill="#2563EB"/>
  <rect x="424" y="508" width="560" height="44" rx="14" fill="white" stroke="#E2E8F0"/>
  <text x="450" y="536" font-family="Inter, Arial, sans-serif" font-size="15" font-weight="900" fill="#334155">Arjun Patel</text>
  <text x="620" y="536" font-family="Inter, Arial, sans-serif" font-size="15" font-weight="900" fill="#334155">Starter</text>
  <rect x="778" y="518" width="92" height="24" rx="12" fill="#FEF3C7"/>
  <text x="796" y="535" font-family="Inter, Arial, sans-serif" font-size="12" font-weight="900" fill="#B45309">Review</text>
  <rect x="902" y="518" width="46" height="24" rx="12" fill="#E2E8F0"/>
  <circle cx="920" cy="530" r="8" fill="#94A3B8"/>
</svg>
