<svg width="1200" height="700" viewBox="0 0 1200 700" fill="none" xmlns="http://www.w3.org/2000/svg">
  <rect width="1200" height="700" rx="48" fill="#F8FBFF"/>
  <circle cx="1040" cy="130" r="210" fill="#DBEAFE"/>
  <circle cx="190" cy="610" r="210" fill="#EDE9FE"/>
  <rect x="110" y="92" width="980" height="516" rx="42" fill="white" stroke="#DBEAFE" stroke-width="2"/>
  <rect x="154" y="142" width="220" height="122" rx="28" fill="#EFF6FF" stroke="#BFDBFE" stroke-width="2"/>
  <rect x="190" y="176" width="96" height="18" rx="9" fill="#2563EB"/>
  <rect x="190" y="218" width="142" height="18" rx="9" fill="#CBD5E1"/>
  <rect x="410" y="142" width="220" height="122" rx="28" fill="#F5F3FF" stroke="#DDD6FE" stroke-width="2"/>
  <rect x="446" y="176" width="110" height="18" rx="9" fill="#7C3AED"/>
  <rect x="446" y="218" width="138" height="18" rx="9" fill="#CBD5E1"/>
  <rect x="666" y="142" width="220" height="122" rx="28" fill="#ECFEFF" stroke="#A5F3FC" stroke-width="2"/>
  <rect x="702" y="176" width="94" height="18" rx="9" fill="#06B6D4"/>
  <rect x="702" y="218" width="142" height="18" rx="9" fill="#CBD5E1"/>
  <rect x="154" y="306" width="528" height="238" rx="30" fill="#F8FAFC" stroke="#E2E8F0" stroke-width="2"/>
  <path d="M204 492C260 450 297 472 344 408C389 346 444 384 492 332C536 284 588 318 632 282" stroke="#2563EB" stroke-width="10" stroke-linecap="round"/>
  <path d="M204 520H632" stroke="#CBD5E1" stroke-width="4" stroke-linecap="round"/>
  <path d="M204 340V520" stroke="#CBD5E1" stroke-width="4" stroke-linecap="round"/>
  <rect x="724" y="306" width="320" height="238" rx="30" fill="#FFFFFF" stroke="#DBEAFE" stroke-width="2"/>
  <rect x="766" y="458" width="34" height="50" rx="12" fill="#93C5FD"/>
  <rect x="824" y="408" width="34" height="100" rx="12" fill="#38BDF8"/>
  <rect x="882" y="360" width="34" height="148" rx="12" fill="#8B5CF6"/>
  <rect x="940" y="388" width="34" height="120" rx="12" fill="#2563EB"/>
  <rect x="766" y="342" width="168" height="18" rx="9" fill="#CBD5E1"/>
</svg>
