<svg width="1200" height="700" viewBox="0 0 1200 700" fill="none" xmlns="http://www.w3.org/2000/svg">
  <defs>
    <linearGradient id="bg" x1="0" y1="0" x2="1200" y2="700" gradientUnits="userSpaceOnUse"><stop stop-color="#F8FCFF"/><stop offset="0.55" stop-color="#EFF6FF"/><stop offset="1" stop-color="#ECFEFF"/></linearGradient>
    <linearGradient id="hero" x1="194" y1="172" x2="932" y2="520" gradientUnits="userSpaceOnUse"><stop stop-color="#2563EB"/><stop offset="0.55" stop-color="#06B6D4"/><stop offset="1" stop-color="#7C3AED"/></linearGradient>
    <filter id="shadow" x="75" y="46" width="1050" height="620" filterUnits="userSpaceOnUse" color-interpolation-filters="sRGB"><feDropShadow dx="0" dy="24" stdDeviation="34" flood-color="#1E40AF" flood-opacity="0.15"/></filter>
  </defs>
  <rect width="1200" height="700" fill="url(#bg)"/>
  <rect x="108" y="78" width="984" height="544" rx="38" fill="white" filter="url(#shadow)"/>
  <rect x="108" y="78" width="984" height="78" rx="38" fill="#F8FAFC"/>
  <rect x="108" y="138" width="984" height="1" fill="#E2E8F0"/>
  <circle cx="154" cy="117" r="8" fill="#EF4444"/><circle cx="182" cy="117" r="8" fill="#F59E0B"/><circle cx="210" cy="117" r="8" fill="#22C55E"/>
  <rect x="260" y="98" width="424" height="38" rx="19" fill="white" stroke="#DBEAFE"/>
  <text x="286" y="123" font-family="Inter, Arial, sans-serif" font-size="17" font-weight="900" fill="#0F172A">Modern Business Website</text>
  <text x="778" y="123" font-family="Inter, Arial, sans-serif" font-size="16" font-weight="900" fill="#2563EB">Hero</text>
  <text x="842" y="123" font-family="Inter, Arial, sans-serif" font-size="16" font-weight="900" fill="#64748B">Services</text>
  <text x="930" y="123" font-family="Inter, Arial, sans-serif" font-size="16" font-weight="900" fill="#64748B">Contact</text>
  <rect x="152" y="188" width="632" height="286" rx="34" fill="url(#hero)"/>
  <circle cx="706" cy="256" r="92" fill="white" opacity="0.16"/>
  <text x="204" y="256" font-family="Inter, Arial, sans-serif" font-size="22" font-weight="900" fill="#DBEAFE">Website UI</text>
  <text x="204" y="314" font-family="Inter, Arial, sans-serif" font-size="48" font-weight="900" fill="white">Modern Business Website</text>
  <text x="204" y="360" font-family="Inter, Arial, sans-serif" font-size="22" font-weight="800" fill="#E0F2FE">Clear services, strong SEO pages, and mobile first sections.</text>
  <rect x="204" y="398" width="154" height="52" rx="26" fill="white"/>
  <text x="234" y="431" font-family="Inter, Arial, sans-serif" font-size="18" font-weight="900" fill="#2563EB">Get Started</text>
  <rect x="824" y="188" width="224" height="286" rx="34" fill="#F8FAFC" stroke="#E2E8F0"/>
  <text x="858" y="232" font-family="Inter, Arial, sans-serif" font-size="24" font-weight="900" fill="#0F172A">Growth stack</text>
  <rect x="858" y="264" width="154" height="50" rx="18" fill="white" stroke="#BFDBFE"/>
  <text x="884" y="296" font-family="Inter, Arial, sans-serif" font-size="17" font-weight="900" fill="#2563EB">Fast Load</text>
  <rect x="858" y="332" width="154" height="50" rx="18" fill="white" stroke="#99F6E4"/>
  <text x="884" y="364" font-family="Inter, Arial, sans-serif" font-size="17" font-weight="900" fill="#0891B2">SEO Ready</text>
  <rect x="858" y="400" width="154" height="50" rx="18" fill="white" stroke="#DDD6FE"/>
  <text x="884" y="432" font-family="Inter, Arial, sans-serif" font-size="17" font-weight="900" fill="#7C3AED">Mobile First</text>
  <rect x="152" y="508" width="220" height="72" rx="24" fill="#F8FAFC" stroke="#DBEAFE"/>
  <text x="184" y="550" font-family="Inter, Arial, sans-serif" font-size="22" font-weight="900" fill="#0F172A">Hero</text>
  <rect x="398" y="508" width="220" height="72" rx="24" fill="#F8FAFC" stroke="#DBEAFE"/>
  <text x="430" y="550" font-family="Inter, Arial, sans-serif" font-size="22" font-weight="900" fill="#0F172A">Services</text>
  <rect x="644" y="508" width="188" height="72" rx="24" fill="#F8FAFC" stroke="#DBEAFE"/>
  <text x="676" y="550" font-family="Inter, Arial, sans-serif" font-size="22" font-weight="900" fill="#0F172A">SEO</text>
  <rect x="858" y="508" width="190" height="72" rx="24" fill="#F8FAFC" stroke="#DBEAFE"/>
  <text x="890" y="550" font-family="Inter, Arial, sans-serif" font-size="22" font-weight="900" fill="#0F172A">Contact</text>
</svg>
